<mxfile host="app.diagrams.net" modified="2021-11-21T12:53:17.774Z" agent="5.0 (Macintosh; Intel Mac OS X 10_15_7) AppleWebKit/537.36 (KHTML, like Gecko) Chrome/86.0.4240.193 Safari/537.36" etag="OKCD4gz7Y_qlarVonSMl" version="15.8.3" type="github">
  <diagram id="9FhPathcQo6w3QkOzpse" name="Page-1">
    <mxGraphModel dx="1426" dy="771" grid="1" gridSize="10" guides="1" tooltips="1" connect="1" arrows="1" fold="1" page="1" pageScale="1" pageWidth="827" pageHeight="1169" math="0" shadow="0">
      <root>
        <mxCell id="0" />
        <mxCell id="1" parent="0" />
        <mxCell id="umPBHbUuq6OMFSkiJR-6-1" value="" style="edgeStyle=orthogonalEdgeStyle;rounded=0;orthogonalLoop=1;jettySize=auto;html=1;fillColor=#dae8fc;strokeColor=#6c8ebf;" edge="1" parent="1" source="umPBHbUuq6OMFSkiJR-6-2" target="umPBHbUuq6OMFSkiJR-6-4">
          <mxGeometry relative="1" as="geometry" />
        </mxCell>
        <mxCell id="umPBHbUuq6OMFSkiJR-6-2" value="Producer" style="rounded=0;whiteSpace=wrap;html=1;fillColor=#fff2cc;strokeColor=#d6b656;" vertex="1" parent="1">
          <mxGeometry x="70" y="240" width="120" height="60" as="geometry" />
        </mxCell>
        <mxCell id="umPBHbUuq6OMFSkiJR-6-3" value="" style="edgeStyle=orthogonalEdgeStyle;rounded=0;orthogonalLoop=1;jettySize=auto;html=1;fillColor=#dae8fc;strokeColor=#6c8ebf;" edge="1" parent="1" source="umPBHbUuq6OMFSkiJR-6-4" target="umPBHbUuq6OMFSkiJR-6-6">
          <mxGeometry relative="1" as="geometry" />
        </mxCell>
        <mxCell id="umPBHbUuq6OMFSkiJR-6-4" value="CommitLog" style="rounded=0;whiteSpace=wrap;html=1;fillColor=#fff2cc;strokeColor=#d6b656;" vertex="1" parent="1">
          <mxGeometry x="230" y="240" width="120" height="60" as="geometry" />
        </mxCell>
        <mxCell id="umPBHbUuq6OMFSkiJR-6-13" style="edgeStyle=none;rounded=0;orthogonalLoop=1;jettySize=auto;html=1;exitX=0.5;exitY=1;exitDx=0;exitDy=0;entryX=0.5;entryY=0;entryDx=0;entryDy=0;" edge="1" parent="1" source="umPBHbUuq6OMFSkiJR-6-6" target="umPBHbUuq6OMFSkiJR-6-8">
          <mxGeometry relative="1" as="geometry" />
        </mxCell>
        <mxCell id="umPBHbUuq6OMFSkiJR-6-14" style="edgeStyle=none;rounded=0;orthogonalLoop=1;jettySize=auto;html=1;exitX=0.5;exitY=1;exitDx=0;exitDy=0;entryX=0.5;entryY=0;entryDx=0;entryDy=0;" edge="1" parent="1" source="umPBHbUuq6OMFSkiJR-6-6" target="umPBHbUuq6OMFSkiJR-6-12">
          <mxGeometry relative="1" as="geometry" />
        </mxCell>
        <mxCell id="umPBHbUuq6OMFSkiJR-6-6" value="MappedFile" style="rounded=0;whiteSpace=wrap;html=1;fillColor=#fff2cc;strokeColor=#d6b656;" vertex="1" parent="1">
          <mxGeometry x="390" y="240" width="120" height="60" as="geometry" />
        </mxCell>
        <mxCell id="umPBHbUuq6OMFSkiJR-6-18" style="edgeStyle=none;rounded=0;orthogonalLoop=1;jettySize=auto;html=1;exitX=0.5;exitY=1;exitDx=0;exitDy=0;entryX=0.5;entryY=0;entryDx=0;entryDy=0;dashed=1;" edge="1" parent="1" source="umPBHbUuq6OMFSkiJR-6-8" target="umPBHbUuq6OMFSkiJR-6-15">
          <mxGeometry relative="1" as="geometry" />
        </mxCell>
        <mxCell id="umPBHbUuq6OMFSkiJR-6-8" value="PageCache" style="rounded=0;whiteSpace=wrap;html=1;fillColor=#ffe6cc;strokeColor=#d79b00;" vertex="1" parent="1">
          <mxGeometry x="300" y="330" width="120" height="60" as="geometry" />
        </mxCell>
        <mxCell id="umPBHbUuq6OMFSkiJR-6-21" style="edgeStyle=none;rounded=0;orthogonalLoop=1;jettySize=auto;html=1;exitX=0.5;exitY=1;exitDx=0;exitDy=0;entryX=0.5;entryY=0;entryDx=0;entryDy=0;dashed=1;" edge="1" parent="1" source="umPBHbUuq6OMFSkiJR-6-12" target="umPBHbUuq6OMFSkiJR-6-20">
          <mxGeometry relative="1" as="geometry" />
        </mxCell>
        <mxCell id="umPBHbUuq6OMFSkiJR-6-12" value="&lt;pre&gt;TransientStorePool&lt;/pre&gt;" style="rounded=0;whiteSpace=wrap;html=1;fillColor=#dae8fc;strokeColor=#6c8ebf;" vertex="1" parent="1">
          <mxGeometry x="460" y="330" width="160" height="60" as="geometry" />
        </mxCell>
        <mxCell id="umPBHbUuq6OMFSkiJR-6-19" style="edgeStyle=none;rounded=0;orthogonalLoop=1;jettySize=auto;html=1;exitX=0.5;exitY=1;exitDx=0;exitDy=0;entryX=0.5;entryY=0;entryDx=0;entryDy=0;dashed=1;" edge="1" parent="1" source="umPBHbUuq6OMFSkiJR-6-15" target="umPBHbUuq6OMFSkiJR-6-17">
          <mxGeometry relative="1" as="geometry" />
        </mxCell>
        <mxCell id="umPBHbUuq6OMFSkiJR-6-15" value="&lt;pre&gt;FlushRealTimeService&lt;/pre&gt;" style="rounded=0;whiteSpace=wrap;html=1;fillColor=#ffe6cc;strokeColor=#d79b00;" vertex="1" parent="1">
          <mxGeometry x="275" y="510" width="170" height="60" as="geometry" />
        </mxCell>
        <mxCell id="umPBHbUuq6OMFSkiJR-6-17" value="Disk" style="rounded=0;whiteSpace=wrap;html=1;fillColor=#ffe6cc;strokeColor=#d79b00;" vertex="1" parent="1">
          <mxGeometry x="300" y="610" width="120" height="60" as="geometry" />
        </mxCell>
        <mxCell id="umPBHbUuq6OMFSkiJR-6-22" style="edgeStyle=none;rounded=0;orthogonalLoop=1;jettySize=auto;html=1;exitX=0;exitY=0.5;exitDx=0;exitDy=0;entryX=1;entryY=0.5;entryDx=0;entryDy=0;dashed=1;" edge="1" parent="1" source="umPBHbUuq6OMFSkiJR-6-20" target="umPBHbUuq6OMFSkiJR-6-8">
          <mxGeometry relative="1" as="geometry" />
        </mxCell>
        <mxCell id="umPBHbUuq6OMFSkiJR-6-20" value="&lt;pre&gt;&lt;pre&gt;CommitRealTimeService&lt;/pre&gt;&lt;/pre&gt;" style="rounded=0;whiteSpace=wrap;html=1;fillColor=#dae8fc;strokeColor=#6c8ebf;" vertex="1" parent="1">
          <mxGeometry x="460" y="430" width="160" height="60" as="geometry" />
        </mxCell>
      </root>
    </mxGraphModel>
  </diagram>
</mxfile>
